<svg width="96" height="89" viewBox="0 0 96 89" fill="none" xmlns="http://www.w3.org/2000/svg">
<path d="M51.6891 43.0841C51.6891 55.7731 40.2793 66.1443 26.0946 66.1443C11.9098 66.1443 0.5 55.7731 0.5 43.0841C0.5 30.3952 11.9098 20.0239 26.0946 20.0239C40.2793 20.0239 51.6891 30.3952 51.6891 43.0841Z" fill="white" stroke="#414445"/>
<path d="M95.2427 43.0841C95.2427 55.7731 83.8329 66.1443 69.6481 66.1443C55.4633 66.1443 44.0535 55.7731 44.0535 43.0841C44.0535 30.3952 55.4633 20.0239 69.6481 20.0239C83.8329 20.0239 95.2427 30.3952 95.2427 43.0841Z" fill="white" stroke="#414445"/>
<circle cx="43.5535" cy="26.0946" r="25.5946" fill="white" stroke="#414445"/>
<circle cx="43.5535" cy="55.1928" r="25.5946" fill="white" stroke="white"/>
<path d="M76.845 65.6995V88.295C76.7846 88.2742 76.7204 88.2521 76.6523 88.2288C76.0966 88.0383 75.2893 87.767 74.2808 87.4428C72.2641 86.7944 69.4417 85.934 66.2178 85.0856C59.7834 83.3925 51.6993 81.7333 45.2279 81.9296C39.5896 82.1007 32.5931 83.7587 27.0333 85.3611C24.2476 86.1639 21.8117 86.956 20.072 87.5475C19.2021 87.8433 18.5059 88.089 18.0268 88.2609C18.0037 88.2692 17.981 88.2773 17.9589 88.2853V65.6947C18.0682 65.6549 18.204 65.6057 18.3645 65.5481C18.8389 65.3779 19.5298 65.134 20.3939 64.8402C22.1225 64.2525 24.543 63.4654 27.3103 62.6679C32.8564 61.0695 39.752 59.4422 45.2582 59.2751C51.5774 59.0834 59.5443 60.7095 65.9633 62.3987C69.166 63.2414 71.9708 64.0964 73.9747 64.7407C74.9765 65.0628 75.7778 65.3321 76.3282 65.5207C76.5378 65.5925 76.711 65.6527 76.845 65.6995Z" fill="white" stroke="#414445"/>
</svg>
